HIERARCHY
ROOT Hips
{
	OFFSET 0.000000 0.000000 0.000000 
	CHANNELS 6 Xposition Yposition Zposition Yrotation Zrotation Xrotation 
	JOINT Lumbar
	{
		OFFSET 0.000000 0.000000 0.000000 
		CHANNELS 3 Zrotation Xrotation Yrotation
		JOINT Neck
		{
			OFFSET 0.000000 0.445665 0.000000 
			CHANNELS 3 Zrotation Xrotation Yrotation
			End Site
			{
				OFFSET 0.000000 0.227535 0.000000 
			}
		}
		JOINT RightShoulder
		{
			OFFSET 0.019635 0.377685 0.194865 
			CHANNELS 3 Zrotation Xrotation Yrotation
			JOINT RightElbow
			{
				OFFSET 0.000000 -0.243375 0.000000 
				CHANNELS 2 Zrotation Yrotation
				JOINT RightWrist
				{
					OFFSET 0.000000 -0.264825 0.000000 
					CHANNELS 2 Zrotation Xrotation
					End Site
					{
						OFFSET 0.006600 -0.176220 0.000990 
					}
				}
			}
		}
		JOINT LeftShoulder
		{
			OFFSET 0.019635 0.377685 -0.194865 
			CHANNELS 3 Zrotation Xrotation Yrotation
			JOINT LeftElbow
			{
				OFFSET 0.000000 -0.243375 0.000000 
				CHANNELS 2 Zrotation Yrotation
				JOINT LeftWrist
				{
					OFFSET 0.000000 -0.264825 0.000000 
					CHANNELS 2 Zrotation Xrotation
					End Site
					{
						OFFSET 0.006600 -0.176220 -0.000990 
					}
				}
			}
		}
	}
	JOINT RightHip
	{
		OFFSET 0.052140 -0.069960 0.075570 
		CHANNELS 3 Zrotation Xrotation Yrotation
		JOINT RightKnee
		{
			OFFSET 0.000000 -0.402270 0.000000 
			CHANNELS 1 Zrotation
			JOINT RightAnkle
			{
				OFFSET 0.000000 -0.404085 0.000000 
				CHANNELS 3 Zrotation Xrotation Yrotation
				End Site
				{
					OFFSET 0.204105 -0.089430 0.008415 
				}
			}
		}
	}
	JOINT LeftHip
	{
		OFFSET 0.052140 -0.069960 -0.075570 
		CHANNELS 3 Zrotation Xrotation Yrotation
		JOINT LeftKnee
		{
			OFFSET 0.000000 -0.402270 0.000000 
			CHANNELS 1 Zrotation
			JOINT LeftAnkle
			{
				OFFSET 0.000000 -0.404085 0.000000 
				CHANNELS 3 Zrotation Xrotation Yrotation
				End Site
				{
					OFFSET 0.204105 -0.089430 -0.008415 
				}
			}
		}
	}
}
MOTION
Frames: 33
Frame Time: 0.02
-0.32588 -0.40902 0.18297 28.13636 0.83457 -9.60046 17.91792 2.77667 -9.46681 -28.6401 9.4263 -0.83062 -4.84236 -24.90275 30.0525 106.52474 71.86912 14.75246 -5.58241 63.05171 16.89164 -57.30252 97.12852 -80.77868 26.53834 3.7376 86.79683 -14.76573 -9.48344 -95.38782 -8.94003 -4.90659 -3.37404 91.70393 18.12987 0.90359 -96.72148 -8.89259 3.55211 2.63333
-0.32651 -0.40897 0.1816 27.97466 0.87756 -9.71549 17.96883 3.04575 -9.74174 -28.83718 9.16801 -0.83062 -5.07249 -23.96042 30.3327 106.02617 72.13968 14.39712 -5.51192 62.94284 17.20949 -57.22441 96.87265 -80.87927 25.87165 3.69608 86.67561 -14.88851 -9.74228 -95.30867 -8.90401 -4.88091 -3.35739 91.7012 18.0922 0.75932 -96.78068 -8.87256 3.57988 2.64766
-0.32707 -0.40901 0.1804 27.81693 0.90671 -9.84296 18.00688 3.33884 -10.07808 -28.91749 8.77467 -0.83062 -5.08202 -22.89561 30.56523 105.51817 72.49628 13.88544 -5.4627 62.66909 17.59408 -57.14965 96.74714 -80.73384 24.64984 3.68902 86.56617 -15.07478 -10.08718 -95.24978 -8.85741 -4.84994 -3.33728 91.73525 18.04827 0.57691 -96.84845 -8.85063 3.60938 2.66115
-0.32765 -0.40902 0.17915 27.65811 0.94434 -9.96206 18.04569 3.61509 -10.38444 -29.04891 8.4415 -0.83062 -5.18601 -21.89595 30.81722 105.01293 72.80056 13.46523 -5.43518 62.48725 17.96896 -57.10622 96.58372 -80.66418 23.69867 3.6748 86.45216 -15.22328 -10.38242 -95.18257 -8.81709 -4.82198 -3.31918 91.74934 18.01218 0.41724 -96.91092 -8.83003 3.6375 2.67466
-0.32827 -0.40898 0.17776 27.49422 0.97341 -10.09219 18.10531 3.91905 -10.70301 -29.18561 8.10296 -0.83062 -5.30737 -20.84667 31.07996 104.51545 73.17811 12.94047 -5.2945 62.23296 18.25961 -56.93077 96.32803 -80.74364 22.647 3.6281 86.33447 -15.40786 -10.7203 -95.11112 -8.77068 -4.79128 -3.29914 91.77559 17.95534 0.23554 -96.97942 -8.80726 3.66838 2.68982
-0.32879 -0.40906 0.17671 27.34263 1.01623 -10.20228 18.11942 4.16976 -11.00942 -29.28322 7.74791 -0.83062 -5.34284 -19.87682 31.30939 104.00022 73.42038 12.59835 -5.38099 62.08483 18.7384 -57.02045 96.2957 -80.46574 21.68423 3.65411 86.22765 -15.5338 -10.99137 -95.05344 -8.73429 -4.76508 -3.28234 91.78619 17.93989 0.09028 -97.03724 -8.78866 3.69382 2.70131
-0.32908 -0.40945 0.17658 27.22426 1.10699 -10.25629 18.00312 4.27046 -11.26666 -29.31968 7.37518 -0.83062 -5.19617 -19.13816 31.44582 103.42428 73.22226 12.86072 -6.1681 62.34564 19.74533 -57.94331 96.85485 -79.12581 21.06777 3.89592 86.1448 -15.47185 -11.04613 -95.02984 -8.72942 -4.75268 -3.27544 91.74008 18.04277 0.05623 -97.06508 -8.7818 3.70375 2.70261
-0.32927 -0.40995 0.17678 27.11862 1.21086 -10.2894 17.84285 4.31607 -11.50882 -29.318 6.99237 -0.83062 -4.97195 -18.48824 31.55189 102.83327 72.8898 13.30393 -7.16808 62.70782 20.93395 -59.1156 97.63239 -77.45498 20.56709 4.20584 86.07309 -15.35068 -11.03252 -95.01938 -8.73478 -4.74501 -3.27191 91.67792 18.18689 0.05994 -97.08164 -8.77927 3.70809 2.70027
-0.3295 -0.41039 0.17682 27.00701 1.30435 -10.33062 17.70798 4.38433 -11.7582 -29.3226 6.61964 -0.83062 -4.78298 -17.81062 31.68041 102.25767 72.64664 13.62749 -8.01564 62.97285 22.02379 -60.1055 98.30743 -76.02795 20.04202 4.46809 85.99835 -15.26362 -11.05779 -95.0022 -8.73458 -4.73514 -3.26676 91.62624 18.31063 0.04537 -97.10224 -8.77498 3.71501 2.69974
-0.32975 -0.4109 0.17689 26.89535 1.41587 -10.37798 17.55013 4.46258 -12.00965 -29.37007 6.22091 -0.83062 -4.58429 -17.07501 31.77271 101.64472 72.29042 14.10429 -9.09359 63.44008 23.18706 -61.38123 99.00517 -74.21352 19.38716 4.79926 85.9154 -15.14859 -11.05434 -94.98846 -8.73774 -4.72525 -3.26184 91.56249 18.44162 0.03387 -97.12751 -8.76981 3.72188 2.69855
-0.32993 -0.41128 0.17697 26.78795 1.49335 -10.4076 17.42946 4.50783 -12.25065 -29.32028 5.87309 -0.83062 -4.39267 -16.48321 31.9314 101.10727 72.13304 14.3058 -9.74896 63.52191 24.23634 -62.12796 99.7002 -73.1112 19.02599 5.00624 85.85212 -15.07666 -11.09176 -94.97092 -8.73663 -4.71661 -3.25732 91.51947 18.56667 0.02584 -97.14054 -8.76741 3.72744 2.69785
-0.32995 -0.41125 0.177 26.67935 1.47195 -10.39163 17.42571 4.4648 -12.48127 -29.01534 5.69146 -0.83062 -4.22016 -16.26454 32.302 100.77161 72.58213 13.71793 -9.1242 62.43509 24.95389 -61.29086 100.37989 -74.22801 19.55041 4.82139 85.8396 -15.14022 -11.27213 -94.93525 -8.71982 -4.71011 -3.25294 91.53857 18.67148 0.01484 -97.11981 -8.77263 3.73119 2.69974
-0.32992 -0.41107 0.17703 26.57645 1.41627 -10.35873 17.46026 4.39234 -12.69896 -28.61353 5.55731 -0.83062 -4.06183 -16.1883 32.73668 100.51423 73.22775 12.84732 -8.07818 60.97332 25.54466 -59.92393 101.03885 -76.04506 20.35076 4.51459 85.84656 -15.24845 -11.49307 -94.89597 -8.69866 -4.70476 -3.2489 91.57868 18.76781 0.00684 -97.08756 -8.78032 3.73371 2.70218
-0.3299 -0.41097 0.17705 26.47739 1.37744 -10.33469 17.47513 4.34015 -12.91239 -28.25413 5.38755 -0.83062 -3.91128 -16.04935 33.12844 100.22807 73.77075 12.09401 -7.26488 59.73545 26.17554 -58.84081 101.67846 -77.4263 20.95926 4.28517 85.8451 -15.33468 -11.68625 -94.86119 -8.68047 -4.699 -3.24482 91.60843 18.86387 -0.00022 -97.06239 -8.78618 3.73648 2.70415
-0.3299 -0.41084 0.17711 26.3516 1.33357 -10.30515 17.49829 4.25683 -13.16758 -27.90065 5.27858 -0.83062 -3.69928 -15.90611 33.57757 99.91342 74.3781 11.38394 -6.28442 58.27237 26.88808 -57.58652 102.45266 -79.27991 21.84903 3.96733 85.84229 -15.42631 -11.91645 -94.81498 -8.65846 -4.69292 -3.24036 91.64125 18.97852 -0.01582 -97.02927 -8.79511 3.7404 2.70696
-0.32987 -0.41073 0.17709 26.28269 1.29205 -10.28313 17.51356 4.23224 -13.33359 -27.51169 5.05192 -0.83062 -3.61785 -15.80296 33.92258 99.67597 74.88375 10.52712 -5.54974 57.19151 27.39631 -56.55746 102.93194 -80.33576 22.22073 3.80142 85.84666 -15.51773 -12.08004 -94.79134 -8.64321 -4.68773 -3.23674 91.67264 19.05221 -0.01328 -97.00985 -8.79827 3.74167 2.70817
-0.3298 -0.4107 0.17687 26.36934 1.26376 -10.28767 17.5004 4.37572 -13.25086 -27.05437 4.51099 -0.83063 -3.90967 -15.78871 33.96724 99.64129 75.20384 9.22161 -5.59145 57.22665 27.38595 -56.29829 102.66291 -78.88382 21.06421 4.10538 85.86713 -15.6008 -12.05008 -94.83261 -8.64786 -4.68441 -3.23519 91.69693 19.01198 0.03733 -97.03343 -8.78387 3.73607 2.70493
-0.32973 -0.41068 0.17659 26.5129 1.23919 -10.3001 17.4777 4.57969 -13.08013 -26.5638 3.84645 -0.83063 -4.32962 -15.80711 33.90491 99.68031 75.3923 7.79664 -5.89446 57.66373 27.1713 -56.27984 102.08839 -76.62988 19.38296 4.56245 85.89395 -15.6818 -11.95196 -94.89631 -8.65937 -4.68197 -3.23449 91.71878 18.9311 0.10606 -97.07079 -8.76376 3.72784 2.70004
-0.32966 -0.41066 0.17634 26.63058 1.21396 -10.308 17.4578 4.75729 -12.95325 -26.08481 3.22324 -0.83063 -4.68094 -15.8015 33.88941 99.67961 75.54316 6.50148 -6.08093 57.93799 27.03897 -56.13728 101.60861 -74.83446 17.95981 4.93539 85.91703 -15.76203 -11.88513 -94.94859 -8.66754 -4.67928 -3.23346 91.74048 18.87056 0.16726 -97.10039 -8.74686 3.72073 2.69582
-0.32957 -0.41062 0.17604 26.74897 1.18341 -10.31951 17.4457 4.92969 -12.80893 -25.61732 2.66208 -0.83063 -5.07733 -15.83935 33.88219 99.70689 76.09739 4.88462 -6.24561 58.11953 26.94432 -56.0366 101.30157 -72.67286 16.45903 5.36476 85.94416 -15.85112 -11.81829 -95.00603 -8.67646 -4.67599 -3.23217 91.76812 18.80209 0.22595 -97.13601 -8.72735 3.71385 2.69194
-0.32951 -0.41062 0.17585 26.87878 1.16503 -10.32532 17.41461 5.12694 -12.68106 -25.11922 1.94454 -0.83063 -5.40922 -15.79292 33.83339 99.69368 75.79608 3.90449 -6.52055 58.58939 26.72733 -55.9151 100.57854 -71.06606 14.99729 5.71553 85.9644 -15.92057 -11.73483 -95.05797 -8.68554 -4.67416 -3.23165 91.78267 18.74033 0.29367 -97.1624 -8.71199 3.70591 2.68699
-0.32954 -0.4107 0.17596 27.03063 1.18165 -10.31608 17.3331 5.38453 -12.61305 -24.54576 0.80083 -0.83063 -5.53924 -15.50183 33.6792 99.53871 73.00337 4.78743 -7.062 59.80462 26.19616 -55.66124 98.64032 -71.24585 13.72648 5.80521 85.96162 -15.93716 -11.62142 -95.09013 -8.6932 -4.67592 -3.23287 91.76044 18.70949 0.38581 -97.16111 -8.70859 3.69551 2.67926
-0.32959 -0.41081 0.17619 27.19114 1.21017 -10.30046 17.23269 5.664 -12.56607 -23.94306 -0.49169 -0.83063 -5.5986 -15.12476 33.48957 99.34206 69.38215 6.30263 -7.70363 61.29019 25.55413 -55.38521 96.31866 -71.98981 12.5228 5.81338 85.95203 -15.93368 -11.49361 -95.11582 -8.70085 -4.67914 -3.23486 91.72523 18.68654 0.48571 -97.14993 -8.7097 3.68415 2.67057
-0.32962 -0.41091 0.17637 27.34477 1.23188 -10.28613 17.14099 5.92926 -12.51412 -23.35341 -1.7001 -0.83063 -5.68506 -14.78897 33.32695 99.17217 66.24642 7.48011 -8.28325 62.62139 24.9812 -55.13058 94.26755 -72.44313 11.31331 5.86243 85.94711 -15.93856 -11.37261 -95.14388 -8.70865 -4.68187 -3.23662 91.69666 18.65825 0.57935 -97.14256 -8.70932 3.67332 2.6625
-0.32968 -0.41102 0.17653 27.51286 1.25953 -10.27878 17.04851 6.21448 -12.43954 -22.76303 -2.98212 -0.83063 -5.79651 -14.44527 33.11501 98.97277 62.65094 8.86571 -8.93734 64.09513 24.32341 -54.83016 91.80663 -73.04406 9.9705 5.8962 85.93586 -15.94655 -11.24793 -95.17508 -8.71605 -4.68396 -3.23792 91.66492 18.63538 0.68488 -97.1385 -8.70641 3.66201 2.6536
-0.3297 -0.4111 0.17677 27.65206 1.27769 -10.2554 16.95325 6.46271 -12.41848 -22.1683 -4.14487 -0.83063 -5.83826 -14.09696 32.99829 98.8229 59.81199 9.96987 -9.46176 65.33636 23.81697 -54.62436 90.10292 -73.44356 8.94178 5.94589 85.93597 -15.9434 -11.12865 -95.19794 -8.7242 -4.68766 -3.24031 91.63669 18.60433 0.76763 -97.12508 -8.70989 3.65151 2.6462
-0.32958 -0.41105 0.17718 27.70955 1.26593 -10.18825 16.85516 6.60183 -12.53875 -21.56352 -4.93921 -0.83064 -5.69697 -13.75841 33.15806 98.82872 59.31559 10.14152 -9.55805 65.82124 23.76954 -54.61701 90.65995 -73.49561 8.64432 6.01002 85.97015 -15.91349 -11.02584 -95.19896 -8.73431 -4.69598 -3.24582 91.62172 18.54276 0.782 -97.08762 -8.7302 3.64357 2.64331
-0.32942 -0.41097 0.17767 27.73722 1.24436 -10.10535 16.75493 6.703 -12.71307 -20.95628 -5.60863 -0.83064 -5.48854 -13.41774 33.41481 98.88378 59.5993 10.00963 -9.52615 66.06928 23.87508 -54.71499 91.97565 -73.27591 8.6819 6.09973 86.01578 -15.8732 -10.92977 -95.19176 -8.74515 -4.70577 -3.25232 91.61071 18.4739 0.77357 -97.04115 -8.75677 3.6365 2.64196
-0.32929 -0.4109 0.17813 27.77826 1.22778 -10.03032 16.65555 6.8223 -12.86365 -20.35412 -6.33585 -0.83064 -5.31573 -13.07685 33.62414 98.91027 59.49446 10.01683 -9.58342 66.45601 23.90448 -54.81126 92.90073 -72.94291 8.65181 6.21159 86.0554 -15.83831 -10.83212 -95.18846 -8.75573 -4.71457 -3.25818 91.59762 18.41261 0.7781 -96.99909 -8.78032 3.62901 2.63981
-0.32915 -0.41084 0.17859 27.82089 1.2093 -9.95205 16.55598 6.93858 -13.01045 -19.73527 -7.06241 -0.83064 -5.12011 -12.73789 33.8451 98.96171 59.5084 10.03809 -9.5199 66.72344 23.96435 -54.72136 94.02198 -73.58268 8.28171 6.18518 86.09811 -15.80001 -10.72725 -95.18423 -8.76607 -4.72482 -3.26492 91.58513 18.33396 0.77272 -96.95525 -8.80475 3.62157 2.638
-0.329 -0.41075 0.17905 27.85241 1.1924 -9.8769 16.45662 7.05198 -13.17891 -19.14964 -7.7607 -0.83064 -4.95551 -12.39566 34.06685 98.97317 59.46582 9.95363 -9.66858 67.17686 23.99036 -55.03281 94.89949 -72.18237 8.67961 6.44499 86.13733 -15.76641 -10.6397 -95.18009 -8.77699 -4.73232 -3.27 91.57264 18.2892 0.78146 -96.91324 -8.82878 3.61429 2.6359
-0.32881 -0.41057 0.17946 27.86536 1.18102 -9.81399 16.35817 7.16545 -13.38423 -18.66766 -8.39381 -0.83064 -4.90555 -12.04417 34.25489 98.86514 59.13332 9.61385 -10.49884 68.22421 23.95675 -56.52916 95.0926 -64.71206 11.2789 7.56669 86.16312 -15.74995 -10.59423 -95.17825 -8.79003 -4.73235 -3.27053 91.55818 18.34361 0.84337 -96.87753 -8.85024 3.60675 2.6322
-0.32861 -0.41035 0.17987 27.86721 1.1716 -9.75488 16.26033 7.27748 -13.61165 -18.21706 -9.00537 -0.83064 -4.88709 -11.69023 34.44303 98.71546 58.71629 9.18092 -11.53439 69.46206 23.87136 -58.40821 94.98226 -55.28618 14.60823 8.96232 86.18532 -15.73838 -10.56673 -95.17684 -8.80349 -4.72947 -3.26931 91.54394 18.4316 0.91867 -96.84424 -8.87103 3.59946 2.62824
